PathFileType	4	(X/Y/Z)	/tmp/tmpyk0b9w69//results/MarkerData/Run_5.trc
DataRate	CameraRate	NumFrames	NumMarkers	Units	OrigDataRate	OrigDataStartFrame	OrigNumFrames
120.005	120.005	9	42	m	120.005	0	656
Frame#	Time	C7			CLAV			LACR			LASI			LCAL			LFAradius			LFAsuperior			LFAulna			LLEL			LMEL			LMT5			LPSI			LTB1			LTB2			LTB3			LTH1			LTH2			LTH3			LTOE			LUA1			LUA2			LUA3			RACR			RASI			RCAL			RFAradius			RFAsuperior			RFAulna			RLEL			RMEL			RMT5			RPSI			RTB1			RTB2			RTB3			RTH1			RTH2			RTH3			RTOE			RUA1			RUA2			RUA3		
		X1	Y1	Z1	X2	Y2	Z2	X3	Y3	Z3	X4	Y4	Z4	X5	Y5	Z5	X6	Y6	Z6	X7	Y7	Z7	X8	Y8	Z8	X9	Y9	Z9	X10	Y10	Z10	X11	Y11	Z11	X12	Y12	Z12	X13	Y13	Z13	X14	Y14	Z14	X15	Y15	Z15	X16	Y16	Z16	X17	Y17	Z17	X18	Y18	Z18	X19	Y19	Z19	X20	Y20	Z20	X21	Y21	Z21	X22	Y22	Z22	X23	Y23	Z23	X24	Y24	Z24	X25	Y25	Z25	X26	Y26	Z26	X27	Y27	Z27	X28	Y28	Z28	X29	Y29	Z29	X30	Y30	Z30	X31	Y31	Z31	X32	Y32	Z32	X33	Y33	Z33	X34	Y34	Z34	X35	Y35	Z35	X36	Y36	Z36	X37	Y37	Z37	X38	Y38	Z38	X39	Y39	Z39	X40	Y40	Z40	X41	Y41	Z41	X42	Y42	Z42

1	0.025	1.11761	1.49879	-0.354965	1.22726	1.41377	-0.304175	1.17616	1.44975	-0.524249	1.15468	0.978335	-0.427152	0.729904	0.135416	-0.324038	1.31716	1.23212	-0.475538	1.18969	1.17532	-0.598991	1.34215	1.16971	-0.476722	1.10999	1.15295	-0.624737	1.06794	1.14029	-0.562695	0.911593	0.0389115	-0.37811	0.990947	1.02568	-0.351617	1.02252	0.349446	-0.357575	0.936843	0.28724	-0.399397	0.901775	0.198723	-0.329056	1.0593	0.815759	-0.470904	1.12782	0.705357	-0.458651	1.0403	0.588506	-0.433845	0.922661	0.0749842	-0.272773	1.15463	1.36464	-0.571983	1.09455	1.3034	-0.555764	1.15941	1.26117	-0.592985	1.14115	1.47455	-0.159131	1.16257	0.988899	-0.189871	0.977066	0.505772	-0.264865	0.95508	1.02607	-0.0257761	0.937214	1.20809	-0.0596809	0.892045	1.02253	-0.0540019	0.901526	1.28542	-0.105324	0.908382	1.26792	-0.168747	1.0176	0.320176	-0.155904	0.994953	1.02705	-0.254441	1.33132	0.530035	-0.212272	1.24822	0.552876	-0.161425	1.15937	0.465257	-0.222716	1.16258	0.850669	-0.124826	1.32342	0.796191	-0.142871	1.33506	0.697092	-0.147761	1.05808	0.311114	-0.25713	1.08701	1.41529	-0.11407	1.05868	1.33343	-0.12012	0.979711	1.36488	-0.137598
2	0.033333	1.11696	1.50516	-0.354605	1.22577	1.42147	-0.30124	1.17976	1.4593	-0.521697	1.15779	0.981847	-0.426476	0.697604	0.153294	-0.327517	1.319	1.25695	-0.468465	1.20098	1.18709	-0.594761	1.34892	1.19677	-0.467552	1.12306	1.15978	-0.621583	1.0795	1.14725	-0.560024	0.867859	0.0387688	-0.378124	0.994191	1.03072	-0.353677	0.994282	0.357507	-0.360296	0.906477	0.298409	-0.40304	0.870256	0.209572	-0.332666	1.05864	0.819875	-0.471658	1.11895	0.707381	-0.456229	1.02204	0.597068	-0.433217	0.882501	0.0757998	-0.272564	1.16206	1.37323	-0.569956	1.10224	1.31168	-0.555622	1.16943	1.2702	-0.59013	1.13633	1.48152	-0.158733	1.16335	0.996457	-0.190092	1.00169	0.470055	-0.265584	0.946104	1.03741	-0.025511	0.927511	1.21889	-0.0631563	0.885005	1.03204	-0.056872	0.894118	1.29479	-0.112193	0.904295	1.27574	-0.17463	1.06278	0.291166	-0.156139	0.99596	1.03365	-0.256859	1.34973	0.536194	-0.211889	1.26429	0.549916	-0.162224	1.18659	0.451676	-0.223244	1.16552	0.861596	-0.122944	1.32583	0.810351	-0.14335	1.34026	0.710957	-0.149391	1.10655	0.287766	-0.257728	1.0809	1.42415	-0.115251	1.05245	1.34234	-0.120302	0.974167	1.37317	-0.141345
3	0.041667	1.11644	1.5117	-0.35414	1.22426	1.42948	-0.298115	1.18342	1.46888	-0.519018	1.16165	0.985287	-0.425529	0.668864	0.17187	-0.330947	1.31928	1.28102	-0.461926	1.21111	1.19932	-0.590642	1.35365	1.22317	-0.458946	1.1352	1.16728	-0.618585	1.0899	1.15486	-0.55781	0.825129	0.0393061	-0.378737	0.997989	1.03618	-0.356327	0.967036	0.366973	-0.363277	0.877631	0.310283	-0.406933	0.8414	0.220678	-0.336832	1.05833	0.824307	-0.472604	1.11022	0.710199	-0.45387	1.00517	0.606231	-0.43352	0.843493	0.0765576	-0.272877	1.16929	1.38227	-0.567909	1.10995	1.32048	-0.555872	1.17891	1.27969	-0.587153	1.13148	1.48857	-0.158431	1.16408	1.00448	-0.18991	1.02879	0.435075	-0.266077	0.93795	1.04832	-0.0259291	0.918628	1.22943	-0.0666557	0.87828	1.04161	-0.0595977	0.887249	1.30411	-0.118404	0.900156	1.2842	-0.180196	1.10957	0.263802	-0.15694	0.997178	1.04063	-0.259648	1.36702	0.541521	-0.211113	1.28004	0.546198	-0.162921	1.2144	0.438367	-0.223534	1.168	0.872516	-0.121301	1.32789	0.823493	-0.144054	1.34396	0.723783	-0.150769	1.15559	0.266644	-0.258173	1.07504	1.43292	-0.11627	1.04651	1.35115	-0.120542	0.968887	1.38161	-0.144499
4	0.05	1.11612	1.51835	-0.353565	1.22274	1.43772	-0.294777	1.18714	1.47841	-0.516145	1.16633	0.988573	-0.424122	0.644764	0.191366	-0.334446	1.31768	1.304	-0.456117	1.21982	1.21197	-0.586717	1.35587	1.2486	-0.451072	1.14618	1.17548	-0.615801	1.09893	1.1631	-0.556175	0.783978	0.0410214	-0.379938	1.0024	1.0421	-0.359671	0.94134	0.378151	-0.366515	0.850953	0.322969	-0.411017	0.815886	0.232108	-0.341513	1.05834	0.829149	-0.473811	1.10174	0.713902	-0.451598	0.989986	0.616168	-0.434804	0.806241	0.0776884	-0.273872	1.17624	1.39181	-0.565826	1.11746	1.32984	-0.556486	1.18766	1.28965	-0.584085	1.12663	1.4956	-0.158251	1.16476	1.01291	-0.189291	1.0589	0.401188	-0.266116	0.930858	1.05868	-0.0270883	0.910794	1.2396	-0.0701505	0.872059	1.05114	-0.0621782	0.881019	1.31333	-0.123782	0.895939	1.29334	-0.185316	1.15841	0.238732	-0.158466	0.998722	1.04794	-0.262899	1.3829	0.54585	-0.210415	1.29548	0.541445	-0.163393	1.24289	0.425493	-0.223537	1.16989	0.883469	-0.120114	1.32941	0.835178	-0.144957	1.34576	0.73505	-0.151953	1.20523	0.248387	-0.258628	1.06949	1.44151	-0.117113	1.04089	1.35977	-0.120876	0.963931	1.39018	-0.146994
5	0.058333	1.11603	1.52489	-0.352914	1.22123	1.44584	-0.291275	1.19085	1.4877	-0.513002	1.17158	0.991578	-0.422091	0.625892	0.211931	-0.338244	1.31423	1.32551	-0.451245	1.22708	1.22475	-0.583122	1.35549	1.27263	-0.444058	1.15592	1.18413	-0.613292	1.10661	1.17165	-0.55518	0.74517	0.044768	-0.381449	1.00732	1.04845	-0.363669	0.917998	0.391014	-0.369798	0.82721	0.336405	-0.415052	0.793937	0.243954	-0.34635	1.0585	0.834441	-0.475373	1.09364	0.71837	-0.449494	0.976521	0.627039	-0.436621	0.771438	0.0801721	-0.275629	1.18276	1.40167	-0.563657	1.12435	1.33959	-0.557168	1.19551	1.29985	-0.581056	1.12189	1.50233	-0.15819	1.1654	1.02137	-0.188366	1.0921	0.368825	-0.265377	0.924967	1.06844	-0.0288425	0.904127	1.24925	-0.0735662	0.866594	1.06037	-0.0646672	0.875409	1.32234	-0.128248	0.891611	1.3029	-0.18985	1.20947	0.216727	-0.160763	1.00072	1.05538	-0.266659	1.39721	0.549153	-0.210689	1.31077	0.535442	-0.163441	1.27196	0.413324	-0.223286	1.17111	0.894491	-0.119677	1.33005	0.844805	-0.145933	1.34541	0.743995	-0.153264	1.25521	0.233462	-0.259512	1.06426	1.44976	-0.117825	1.03557	1.36799	-0.121342	0.95931	1.39876	-0.148938
6	0.066667	1.11621	1.53097	-0.35224	1.21974	1.4533	-0.287772	1.19446	1.49649	-0.509587	1.17678	0.994231	-0.419568	0.611427	0.233464	-0.342517	1.30945	1.34522	-0.447417	1.23317	1.23705	-0.579995	1.35302	1.29481	-0.437911	1.16454	1.1927	-0.611108	1.11321	1.17994	-0.554758	0.709165	0.051409	-0.382808	1.01244	1.05502	-0.368091	0.897659	0.40494	-0.37262	0.806884	0.350296	-0.418689	0.774862	0.256331	-0.350724	1.05854	0.840082	-0.477361	1.0861	0.723329	-0.447756	0.964435	0.638866	-0.437968	0.739252	0.0851549	-0.277979	1.18872	1.41147	-0.561333	1.13016	1.34932	-0.557382	1.2024	1.30981	-0.578277	1.11743	1.5084	-0.15819	1.166	1.02927	-0.187441	1.12771	0.338244	-0.263737	0.920166	1.07761	-0.0308985	0.898468	1.25826	-0.0768125	0.862021	1.06901	-0.0671465	0.870254	1.331	-0.131914	0.887152	1.31239	-0.19375	1.26226	0.198332	-0.163643	1.00314	1.06265	-0.270878	1.41001	0.551561	-0.212397	1.3261	0.528272	-0.16294	1.30121	0.402143	-0.22295	1.17171	0.905395	-0.120134	1.32947	0.851806	-0.146838	1.34304	0.749941	-0.155212	1.30496	0.221889	-0.261302	1.05938	1.45744	-0.118509	1.03049	1.37562	-0.121949	0.954959	1.40712	-0.150595
7	0.075	1.1166	1.53628	-0.35154	1.21836	1.45961	-0.284484	1.19786	1.50452	-0.506015	1.18127	0.996603	-0.417017	0.599511	0.255652	-0.347284	1.30397	1.36283	-0.444618	1.23849	1.24819	-0.577433	1.34921	1.3147	-0.432597	1.17215	1.20066	-0.609298	1.11897	1.18753	-0.55479	0.675918	0.0614872	-0.383655	1.01739	1.06157	-0.372639	0.880608	0.418905	-0.374356	0.790085	0.364195	-0.421622	0.757512	0.269322	-0.354089	1.05833	0.845865	-0.479755	1.07925	0.728624	-0.44671	0.9535	0.651369	-0.437903	0.709126	0.0934587	-0.280488	1.19398	1.42069	-0.558831	1.13474	1.35851	-0.556662	1.20834	1.31905	-0.575969	1.11345	1.51349	-0.158147	1.16652	1.03606	-0.186835	1.1648	0.30955	-0.26144	0.916228	1.08616	-0.0330561	0.893506	1.26657	-0.0798315	0.858314	1.07686	-0.069657	0.865404	1.3391	-0.134977	0.882583	1.32137	-0.197059	1.31575	0.183809	-0.166835	1.00577	1.06955	-0.275415	1.42133	0.553118	-0.214975	1.34148	0.520296	-0.161938	1.33012	0.392162	-0.222768	1.17173	0.915505	-0.121384	1.32744	0.855741	-0.147631	1.33896	0.752565	-0.15808	1.35371	0.213557	-0.264203	1.0549	1.46435	-0.119257	1.02561	1.38247	-0.12266	0.950805	1.41502	-0.15217
8	0.083333	1.11714	1.54071	-0.350704	1.21718	1.46453	-0.281592	1.201	1.51158	-0.502522	1.18464	0.998906	-0.41498	0.58812	0.278124	-0.352491	1.29829	1.37796	-0.442695	1.2432	1.25765	-0.575466	1.34473	1.33178	-0.428078	1.1787	1.20769	-0.607932	1.1239	1.19425	-0.5552	0.644991	0.0750452	-0.383896	1.0218	1.06788	-0.377033	0.866701	0.431797	-0.374577	0.776534	0.377579	-0.423667	0.740872	0.282874	-0.356241	1.05793	0.851592	-0.48233	1.07331	0.734272	-0.446642	0.944074	0.663739	-0.436261	0.680036	0.105408	-0.282561	1.19844	1.42892	-0.55625	1.13832	1.36665	-0.554962	1.21336	1.32721	-0.574305	1.11009	1.51742	-0.157946	1.16694	1.04153	-0.186711	1.20266	0.282864	-0.259025	0.912972	1.09399	-0.0353043	0.888964	1.27409	-0.0826229	0.855334	1.08384	-0.0721699	0.860851	1.34643	-0.137622	0.877996	1.32956	-0.199881	1.36862	0.173078	-0.170189	1.00823	1.07606	-0.280012	1.43099	0.553646	-0.217259	1.35661	0.511962	-0.160639	1.35817	0.383442	-0.22291	1.17112	0.923627	-0.123165	1.32402	0.856461	-0.148386	1.33354	0.752095	-0.161528	1.40071	0.208378	-0.267953	1.05095	1.47028	-0.120072	1.02105	1.38839	-0.123416	0.946838	1.42224	-0.153684
9	0.091667	1.11771	1.54436	-0.349558	1.2163	1.46815	-0.279171	1.20389	1.5175	-0.499397	1.18685	1.00143	-0.413767	0.575838	0.300645	-0.358165	1.29284	1.39018	-0.44132	1.24727	1.26513	-0.574046	1.34013	1.34555	-0.42427	1.18401	1.2137	-0.607084	1.12782	1.20012	-0.555987	0.615885	0.0917034	-0.383637	1.02536	1.07382	-0.380979	0.855442	0.442729	-0.373305	0.765581	0.389967	-0.424759	0.72435	0.29681	-0.35735	1.0575	0.857179	-0.484646	1.06866	0.740194	-0.447512	0.937074	0.674644	-0.433797	0.651049	0.121004	-0.283659	1.20211	1.43592	-0.553822	1.14133	1.3734	-0.552746	1.21748	1.33414	-0.573367	1.10746	1.52024	-0.157495	1.16726	1.04577	-0.186997	1.24076	0.258511	-0.257089	0.910339	1.10091	-0.0377281	0.884714	1.28074	-0.0852302	0.852942	1.08993	-0.0746151	0.856732	1.35278	-0.139995	0.873595	1.33686	-0.202336	1.4195	0.165709	-0.173717	1.01021	1.08212	-0.28426	1.43862	0.552825	-0.218463	1.37085	0.503597	-0.159311	1.38486	0.375868	-0.223412	1.16975	0.928482	-0.125197	1.31959	0.85426	-0.149204	1.32724	0.749209	-0.16465	1.44528	0.206117	-0.271913	1.04768	1.4751	-0.120845	1.01699	1.39322	-0.124164	0.943158	1.42865	-0.155026
